# xmcd
#
# Track frame offsets:
#	150
#	16330
#	30151
#	44686
#	60470
#	75611
#	93490
#	110718
#	128685
#	145311
#	162263
#	179821
#	195347
#	211465
#	226826
#
# Disc length: 3287 seconds
#
# Revision: 0
# Processed by: cddbd v1.5.2PL0 Copyright (c) Steve Scherf et al.
# Submitted via: audiograbber 1.83.01
#
DISCID=c70cd50f
DTITLE=Various Artist - CB-E9-09
DYEAR=2008
DGENRE=Karaoke
TTITLE0=Jason Michael Carroll - I Can Sleep When I'm Dead
TTITLE1=Taylor Swift - Picture To Burn
TTITLE2=Darius Rucker - Don't Think I Don't Think About It
TTITLE3=Brooks and Dunn - Proud Of The House We Built
TTITLE4=Julianne Hough - That Song In My Head
TTITLE5=Rodney Atkins - Cleaning This Gun (Come On In Boy)
TTITLE6=Martina McBride - How I Feel
TTITLE7=Craig Morgan - Love Remembers
TTITLE8=Sara Evans - As If
TTITLE9=Clay Walker - Fall
TTITLE10=Trace Adkins - You're Gonna Miss This
TTITLE11=Kellie Pickler - Don't You Know You're Beautiful
TTITLE12=Jeff Bates - Don't Hate Me For Lovin' You
TTITLE13=Lee Ann Womack - Last Call
TTITLE14=Jamey Johnson - In Color
EXTD=
EXTT0=
EXTT1=
EXTT2=
EXTT3=
EXTT4=
EXTT5=
EXTT6=
EXTT7=
EXTT8=
EXTT9=
EXTT10=
EXTT11=
EXTT12=
EXTT13=
EXTT14=
PLAYORDER=
